<?xml version="1.0" encoding="UTF-8" standalone="no"?>
<svg
   xmlns:dc="http://purl.org/dc/elements/1.1/"
   xmlns:cc="http://creativecommons.org/ns#"
   xmlns:rdf="http://www.w3.org/1999/02/22-rdf-syntax-ns#"
   xmlns:svg="http://www.w3.org/2000/svg"
   xmlns="http://www.w3.org/2000/svg"
   xmlns:sodipodi="http://sodipodi.sourceforge.net/DTD/sodipodi-0.dtd"
   xmlns:inkscape="http://www.inkscape.org/namespaces/inkscape"
   width="163.66968mm"
   height="172.62778mm"
   viewBox="0 0 163.66968 172.62778"
   version="1.1"
   id="svg8"
   inkscape:version="1.0.1 (3bc2e813f5, 2020-09-07)"
   sodipodi:docname="spiral.svg">
  <defs
     id="defs2" />
  <sodipodi:namedview
     id="base"
     pagecolor="#ffffff"
     bordercolor="#666666"
     borderopacity="1.0"
     inkscape:pageopacity="0.0"
     inkscape:pageshadow="2"
     inkscape:zoom="0.89627713"
     inkscape:cx="124.62294"
     inkscape:cy="410.50527"
     inkscape:document-units="mm"
     inkscape:current-layer="layer1"
     inkscape:document-rotation="0"
     showgrid="true"
     inkscape:window-width="1920"
     inkscape:window-height="1017"
     inkscape:window-x="-8"
     inkscape:window-y="-8"
     inkscape:window-maximized="1"
     fit-margin-top="-20"
     fit-margin-left="-20"
     fit-margin-right="-20"
     fit-margin-bottom="-20">
    <inkscape:grid
       type="xygrid"
       id="grid841" />
  </sodipodi:namedview>
  <metadata
     id="metadata5">
    <rdf:RDF>
      <cc:Work
         rdf:about="">
        <dc:format>image/svg+xml</dc:format>
        <dc:type
           rdf:resource="http://purl.org/dc/dcmitype/StillImage" />
        <dc:title></dc:title>
      </cc:Work>
    </rdf:RDF>
  </metadata>
  <g
     inkscape:label="Layer 1"
     inkscape:groupmode="layer"
     id="layer1"
     transform="translate(-44.058117,-107.54033)">
    <path
       id="path835"
       style="fill:#000000;fill-opacity:1;fill-rule:evenodd;stroke:#000000;stroke-width:0.241199"
       d="m 126.07895,193.52991 c 0.003,1.7e-4 0.002,0.004 0.002,0.006 -0.004,0.0101 -0.0186,0.008 -0.0256,0.003 -0.0252,-0.0164 -0.0167,-0.0538 -3.3e-4,-0.0729 0.0435,-0.0509 0.12301,-0.0297 0.16408,0.0123 0.0902,0.0923 0.0463,0.24162 -0.0419,0.31751 -0.17065,0.14676 -0.42672,0.0659 -0.55382,-0.0969 -0.22422,-0.28719 -0.088,-0.69708 0.18627,-0.89552 0.45132,-0.32654 1.07301,-0.11164 1.36685,0.32029 0.4579,0.67306 0.13588,1.57621 -0.50982,1.99368 -0.96309,0.62268 -2.22977,0.15961 -2.80343,-0.76656 -0.82545,-1.33265 -0.18163,-3.05795 1.10288,-3.82494 1.79358,-1.07097 4.08628,-0.20057 5.08847,1.53186 1.36419,2.3582 0.21499,5.34138 -2.06722,6.62556 -3.03937,1.71023 -6.85096,0.22337 -8.46903,-2.72326 -2.11437,-3.85045 -0.22406,-8.64383 3.51491,-10.65294 4.80524,-2.58207 10.74974,-0.21532 13.21249,4.45763 3.11893,5.91804 0.19537,13.1995 -5.56746,16.18406 -7.20357,3.73073 -16.02478,0.1623 -19.6051,-6.86093 -4.42337,-8.67698 -0.11413,-19.25826 8.35512,-23.51415 10.35385,-5.20293 22.93345,-0.0488 27.9508,10.06758 6.07561,12.25015 -0.0357,27.08475 -12.01635,32.95562 -14.38229,7.04776 -31.74745,-0.14173 -38.57022,-14.21994 -8.12587,-16.76701 0.27145,-36.95762 16.69732,-44.83717 19.42146,-9.31655 42.75215,0.4272 51.79995,19.46793 10.62655,22.36318 -0.61138,49.16876 -22.55161,59.50299 -25.61003,12.06278 -56.2459,-0.82643 -67.99163,-25.96862 -13.63222,-29.18028 1.07489,-64.02284 29.73969,-77.31213 33.0925,-15.34201 72.53953,1.35932 87.51156,33.88595 17.19941,37.36561 -1.68238,81.83671 -38.4289,98.63788 C 111.54961,286.96546 61.61272,265.70692 42.82863,224.36321 21.44195,177.29123 45.28379,121.42423 91.62154,100.49596 L 73.91766,82.405133 C 18.96109,113.02866 -4.6246894,184.39101 26.6404,240.20519 c 27.46039,49.02206 91.24238,70.03947 141.05285,41.981 43.56008,-24.53736 62.21551,-81.33295 37.12274,-125.61493 -21.84315,-38.54731 -72.21742,-55.03682 -111.42393,-32.67863 -33.96081,19.36673 -48.47039,63.85638 -28.62724,98.41707 17.09719,29.77804 56.21102,42.48373 86.53292,24.94699 25.97691,-15.02381 37.045,-49.24325 21.61678,-75.71124 -13.13609,-22.5357 -42.91568,-32.12291 -65.89285,-18.61586 -19.43316,11.42371 -27.68685,37.19161 -15.92396,57.01975 9.87655,16.64846 32.03513,23.70681 49.0351,13.52123 14.16119,-8.48472 20.1534,-27.41103 11.38821,-41.88325 -7.23845,-11.95144 -23.28485,-16.99794 -35.50973,-9.50597 -9.99973,6.12828 -14.21238,19.62292 -7.856,29.86135 5.14491,8.28709 16.39239,11.7694 24.88618,6.42028 6.79501,-4.27928 9.64236,-13.5612 5.18127,-20.5336 -3.52253,-5.5055 -11.09811,-7.80535 -16.7543,-4.12195 -4.40108,2.86607 -6.23325,8.97279 -3.2258,13.50038 2.30151,3.46484 7.15575,4.90166 10.72534,2.47687 2.68035,-1.82073 3.787,-5.61844 1.85972,-8.38415 -1.41586,-2.03181 -4.33323,-2.86654 -6.43328,-1.35951 -1.50399,1.07928 -2.11837,3.27349 -0.96201,4.83077 0.80365,1.08228 2.41359,1.52148 3.53629,0.65357 0.75271,-0.58189 1.05583,-1.72895 0.42125,-2.51119 -0.40723,-0.50199 -1.19611,-0.7023 -1.71861,-0.25275 -0.31753,0.27321 -0.44285,0.79275 -0.13653,1.12353 0.17365,0.18749 0.49778,0.26051 0.69292,0.0618 0.1009,-0.10274 0.13954,-0.2914 0.0187,-0.39584 -0.055,-0.0475 -0.15518,-0.0652 -0.20358,0.002 -0.0182,0.0254 -0.0248,0.0723 0.008,0.0899 0.009,0.005 0.0272,0.007 0.0312,-0.006 0,-0.002 0,-0.007 -0.003,-0.007 -2e-5,0 -6.9e-4,9e-5 -6e-4,2.9e-4 -6e-5,-1.6e-4 4.8e-4,-1.9e-4 5e-4,-1.9e-4 z"
       sodipodi:nodetypes="ccccscssssssssssssssssssssssscsccscssssssssssssssssssssssssccccscc" />
    <rect
       style="fill:none;fill-opacity:1;stroke-width:0.264583"
       id="rect843"
       width="164.04167"
       height="174.625"
       x="44.058117"
       y="107.54033" />
  </g>
</svg>
