<svg width="163.67mm" height="172.63mm" version="1.1" viewBox="0 0 163.67 172.63" xmlns="http://www.w3.org/2000/svg">
 <g transform="translate(-44.058 -107.54)">
  <path d="m126.08 193.53c3e-3 1.7e-4 2e-3 4e-3 2e-3 6e-3 -4e-3 0.0101-0.0186 8e-3 -0.0256 3e-3 -0.0252-0.0164-0.0167-0.0538-3.3e-4 -0.0729 0.0435-0.0509 0.12301-0.0297 0.16408 0.0123 0.0902 0.0923 0.0463 0.24162-0.0419 0.31751-0.17065 0.14676-0.42672 0.0659-0.55382-0.0969-0.22422-0.28719-0.088-0.69708 0.18627-0.89552 0.45132-0.32654 1.073-0.11164 1.3668 0.32029 0.4579 0.67306 0.13588 1.5762-0.50982 1.9937-0.96309 0.62268-2.2298 0.15961-2.8034-0.76656-0.82545-1.3326-0.18163-3.058 1.1029-3.8249 1.7936-1.071 4.0863-0.20057 5.0885 1.5319 1.3642 2.3582 0.21499 5.3414-2.0672 6.6256-3.0394 1.7102-6.851 0.22337-8.469-2.7233-2.1144-3.8504-0.22406-8.6438 3.5149-10.653 4.8052-2.5821 10.75-0.21532 13.212 4.4576 3.1189 5.918 0.19537 13.2-5.5675 16.184-7.2036 3.7307-16.025 0.1623-19.605-6.8609-4.4234-8.677-0.11413-19.258 8.3551-23.514 10.354-5.2029 22.933-0.0488 27.951 10.068 6.0756 12.25-0.0357 27.085-12.016 32.956-14.382 7.0478-31.747-0.14173-38.57-14.22-8.1259-16.767 0.27145-36.958 16.697-44.837 19.421-9.3166 42.752 0.4272 51.8 19.468 10.627 22.363-0.61138 49.169-22.552 59.503-25.61 12.063-56.246-0.82643-67.992-25.969-13.632-29.18 1.0749-64.023 29.74-77.312 33.092-15.342 72.54 1.3593 87.512 33.886 17.199 37.366-1.6824 81.837-38.429 98.638-42.019 19.212-91.956-2.0469-110.74-43.391-21.387-47.072 2.4552-102.94 48.793-123.87l-17.704-18.091c-54.957 30.624-78.542 101.99-47.277 157.8 27.46 49.022 91.242 70.039 141.05 41.981 43.56-24.537 62.216-81.333 37.123-125.61-21.843-38.547-72.217-55.037-111.42-32.679-33.961 19.367-48.47 63.856-28.627 98.417 17.097 29.778 56.211 42.484 86.533 24.947 25.977-15.024 37.045-49.243 21.617-75.711-13.136-22.536-42.916-32.123-65.893-18.616-19.433 11.424-27.687 37.192-15.924 57.02 9.8766 16.648 32.035 23.707 49.035 13.521 14.161-8.4847 20.153-27.411 11.388-41.883-7.2384-11.951-23.285-16.998-35.51-9.506-9.9997 6.1283-14.212 19.623-7.856 29.861 5.1449 8.2871 16.392 11.769 24.886 6.4203 6.795-4.2793 9.6424-13.561 5.1813-20.534-3.5225-5.5055-11.098-7.8054-16.754-4.122-4.4011 2.8661-6.2332 8.9728-3.2258 13.5 2.3015 3.4648 7.1558 4.9017 10.725 2.4769 2.6804-1.8207 3.787-5.6184 1.8597-8.3842-1.4159-2.0318-4.3332-2.8665-6.4333-1.3595-1.504 1.0793-2.1184 3.2735-0.96201 4.8308 0.80365 1.0823 2.4136 1.5215 3.5363 0.65357 0.75271-0.58189 1.0558-1.729 0.42125-2.5112-0.40723-0.50199-1.1961-0.7023-1.7186-0.25275-0.31753 0.27321-0.44285 0.79275-0.13653 1.1235 0.17365 0.18749 0.49778 0.26051 0.69292 0.0618 0.1009-0.10274 0.13954-0.2914 0.0187-0.39584-0.055-0.0475-0.15518-0.0652-0.20358 2e-3 -0.0182 0.0254-0.0248 0.0723 8e-3 0.0899 9e-3 5e-3 0.0272 7e-3 0.0312-6e-3 0-2e-3 0-7e-3 -3e-3 -7e-3 -2e-5 0-6.9e-4 9e-5 -6e-4 2.9e-4 -6e-5 -1.6e-4 4.8e-4 -1.9e-4 5e-4 -1.9e-4z" fill-rule="evenodd" stroke="#000" stroke-width=".2412"/>
  <rect x="44.058" y="107.54" width="164.04" height="174.62" fill="none" stroke-width=".26458"/>
 </g>
</svg>
